<svg width="188" height="211" viewBox="0 0 188 211" fill="none" xmlns="http://www.w3.org/2000/svg">
<path d="M22.1179 156.35C30.6151 170.798 56.0603 192.733 89.8636 164.889M89.8636 164.889C132.118 130.084 90.3623 106.093 65.1766 122.315C39.9908 138.537 60.8052 168.918 89.8636 164.889ZM89.8636 164.889C101.666 165.039 128.254 162.17 140.19 149.495C155.11 133.651 147.5 97.4384 136 77.4384" stroke="#C4C4C4" stroke-opacity="0.7" stroke-width="3" stroke-dasharray="9 9"/>
<path d="M116.447 51.669C116.87 44.9536 124.889 41.7281 129.844 46.2808L145.458 60.628C149.79 64.6084 148.489 71.7458 143.031 73.941L126.084 80.7568C120.626 82.952 114.745 78.7034 115.115 72.8321L116.447 51.669Z" fill="#C4C4C4" fill-opacity="0.7"/>
</svg>
